<?xml version="1.0" encoding="UTF-8" standalone="no"?>
<svg
   width="125.2"
   height="39.914001"
   viewBox="0 0 125.19999 39.914002"
   fill="none"
   version="1.1"
   id="svg1"
   xmlns="http://www.w3.org/2000/svg"
   xmlns:svg="http://www.w3.org/2000/svg">
  <defs
     id="defs1" />
  <g
     id="g2"
     transform="matrix(0.71831629,0,0,0.71831629,-10.682405,33.914633)">
    <path
       id="path14"
       d="m -1.85731,0 h -10.196516 c -1.233348,0 -2.734678,0.86495452 -3.353314,1.93193 l -13.950185,24.06019 c -0.51455,0.887455 -0.100071,1.60688 0.925765,1.60688 h 10.197421 c 1.233329,0 2.734611,-0.864955 3.353209,-1.93193 L -0.93156633,1.6067933 C -0.41707645,0.71938585 -0.83154601,0 -1.85731,0 Z"
       style="fill:#ffffff;fill-opacity:1;fill-rule:nonzero;stroke:none"
       transform="matrix(1.0555702,0,0,-1.0555702,59.3183,-5.20133)" />
    <path
       id="path15"
       d="m 1.85731,0 h 11.721788 a 1.1540802,1.1540802 31.524546 0 1 1.028742,0.63102 l 1.235193,2.4293471 A 3.5938175,3.5938175 92.293376 0 1 15.70252,6.56896 l -5.682485,9.259307 A 1.4178308,1.4178308 2.9523013 0 1 7.53333,15.70002 L 0.80348345,1.6745193 A 1.1688624,1.1688624 122.18347 0 1 1.85731,0 Z"
       style="fill:#926dff;fill-opacity:1;fill-rule:nonzero;stroke:none"
       transform="matrix(1.0555702,0,0,-1.0555702,14.144745,-5.20133)" />
  </g>
  <path
     style="font-size:41.0071px;font-family:Gilroy-Bold;-inkscape-font-specification:Gilroy-Bold;fill:#ffffff;stroke-width:1.92221"
     d="m 56.636733,9.683075 h 5.289916 v 20.50355 h -5.289916 v -2.419419 q -2.378411,2.993518 -6.684157,2.993518 -4.10071,0 -7.053221,-3.11654 -2.911504,-3.157546 -2.911504,-7.709334 0,-4.551788 2.911504,-7.668328 2.952511,-3.1575464 7.053221,-3.1575464 4.305746,0 6.684157,2.9935184 z m -9.759689,14.434499 q 1.599277,1.599277 4.059703,1.599277 2.460426,0 4.059702,-1.599277 1.640284,-1.640284 1.640284,-4.182724 0,-2.54244 -1.640284,-4.141717 -1.599276,-1.640284 -4.059702,-1.640284 -2.460426,0 -4.059703,1.640284 -1.599277,1.599277 -1.599277,4.141717 0,2.54244 1.599277,4.182724 z M 80.2568,9.683075 h 5.289916 v 20.50355 H 80.2568 v -2.296398 q -1.927334,2.870497 -6.110058,2.870497 -3.362582,0 -5.576965,-2.255391 -2.173376,-2.25539 -2.173376,-6.233079 V 9.683075 h 5.289915 v 11.933066 q 0,2.050355 1.107192,3.157546 1.107192,1.066185 2.952511,1.066185 2.050355,0 3.280568,-1.27122 1.230213,-1.27122 1.230213,-3.81366 z m 15.418656,3.52661 q 0.738128,-1.96834 2.419419,-2.952511 1.722298,-0.98417 3.813665,-0.98417 v 5.905022 q -2.419423,-0.287049 -4.346757,0.984171 -1.886327,1.27122 -1.886327,4.223731 v 9.800697 H 90.385541 V 9.683075 h 5.289915 z M 119.7877,9.683075 h 5.28992 v 20.50355 h -5.28992 v -2.419419 q -2.37841,2.993518 -6.68415,2.993518 -4.10071,0 -7.05322,-3.11654 -2.91151,-3.157546 -2.91151,-7.709334 0,-4.551788 2.91151,-7.668328 2.95251,-3.1575464 7.05322,-3.1575464 4.30574,0 6.68415,2.9935184 z m -9.75969,14.434499 q 1.59928,1.599277 4.05971,1.599277 2.46042,0 4.0597,-1.599277 1.64028,-1.640284 1.64028,-4.182724 0,-2.54244 -1.64028,-4.141717 -1.59928,-1.640284 -4.0597,-1.640284 -2.46043,0 -4.05971,1.640284 -1.59927,1.599277 -1.59927,4.141717 0,2.54244 1.59927,4.182724 z"
     id="text3"
     aria-label="aura" />
</svg>
