<?xml version="1.0" encoding="UTF-8" standalone="no"?>
<svg
   width="195.10001"
   height="39.914001"
   viewBox="0 0 195.09999 39.914002"
   fill="none"
   version="1.1"
   id="svg1"
   xmlns="http://www.w3.org/2000/svg"
   xmlns:svg="http://www.w3.org/2000/svg">
  <defs
     id="defs1" />
  <g
     id="g2"
     transform="matrix(0.71831629,0,0,0.71831629,-10.682405,33.914633)">
    <path
       id="path13"
       d="m -2.00018,0 h -10.053646 c -1.233348,0 -2.734678,0.86495452 -3.353314,1.93193 l -13.878518,23.936583 c -0.55413,0.955722 -0.107768,1.730487 0.996978,1.730487 h 10.054541 c 1.233329,0 2.734611,-0.864955 3.353209,-1.93193 L -1.0032253,1.7303928 C -0.44915926,0.77472322 -0.89551109,0 -2.00018,0 Z"
       style="fill:#ffffff;fill-opacity:1;fill-rule:nonzero;stroke:none"
       transform="matrix(1.0555702,0,0,-1.0555702,83.106734,-5.20133)" />
    <path
       id="path14"
       d="m -1.85731,0 h -10.196516 c -1.233348,0 -2.734678,0.86495452 -3.353314,1.93193 l -13.950185,24.06019 c -0.51455,0.887455 -0.100071,1.60688 0.925765,1.60688 h 10.197421 c 1.233329,0 2.734611,-0.864955 3.353209,-1.93193 L -0.93156633,1.6067933 C -0.41707645,0.71938585 -0.83154601,0 -1.85731,0 Z"
       style="fill:#ffffff;fill-opacity:1;fill-rule:nonzero;stroke:none"
       transform="matrix(1.0555702,0,0,-1.0555702,59.3183,-5.20133)" />
    <path
       id="path15"
       d="m 1.85731,0 h 11.721788 a 1.1540802,1.1540802 31.524546 0 1 1.028742,0.63102 l 1.235193,2.4293471 A 3.5938175,3.5938175 92.293376 0 1 15.70252,6.56896 l -5.682485,9.259307 A 1.4178308,1.4178308 2.9523013 0 1 7.53333,15.70002 L 0.80348345,1.6745193 A 1.1688624,1.1688624 122.18347 0 1 1.85731,0 Z"
       style="fill:#926dff;fill-opacity:1;fill-rule:nonzero;stroke:none"
       transform="matrix(1.0555702,0,0,-1.0555702,14.144745,-5.20133)" />
  </g>
  <path
     style="font-size:41.0071px;font-family:Gilroy-Bold;-inkscape-font-specification:Gilroy-Bold;fill:#ffffff;stroke-width:1.92221"
     d="m 80.751023,9.1089756 q 3.526611,0 5.617973,2.2963974 2.132369,2.296398 2.132369,6.151065 V 30.186625 H 83.211449 V 17.925502 q 0,-1.84532 -0.902156,-2.870497 -0.902156,-1.025178 -2.54244,-1.025178 -1.804313,0 -2.82949,1.189206 -0.984171,1.189206 -0.984171,3.444597 V 30.186625 H 70.663277 V 17.925502 q 0,-1.84532 -0.902157,-2.870497 -0.902156,-1.025178 -2.54244,-1.025178 -1.763305,0 -2.82949,1.189206 -1.025177,1.189206 -1.025177,3.444597 V 30.186625 H 58.074097 V 9.683075 h 5.289916 v 2.173376 Q 65.209332,9.1089756 69.064,9.1089756 q 3.772653,0 5.576965,2.9525114 2.050355,-2.9525114 6.110058,-2.9525114 z M 97.48189,22.108226 q 1.066184,3.854667 5.782,3.854667 3.03453,0 4.5928,-2.050355 l 4.26473,2.460426 q -3.03452,4.38776 -8.93954,4.38776 -5.084884,0 -8.160416,-3.075533 -3.075533,-3.075532 -3.075533,-7.750341 0,-4.633802 3.034526,-7.709335 3.034525,-3.1165394 7.791353,-3.1165394 4.51078,0 7.42228,3.1165394 2.95251,3.11654 2.95251,7.709335 0,1.025177 -0.20503,2.173376 z m -0.08201,-4.10071 h 10.456814 q -0.45108,-2.091362 -1.88633,-3.116539 -1.39424,-1.025178 -3.19855,-1.025178 -2.13237,0 -3.526615,1.107192 -1.394241,1.066184 -1.845319,3.034525 z M 132.21489,1.4816551 h 5.28992 V 30.186625 h -5.28992 v -2.419419 q -2.3374,2.993518 -6.64315,2.993518 -4.14172,0 -7.09423,-3.11654 -2.9115,-3.157546 -2.9115,-7.709334 0,-4.551788 2.9115,-7.668328 2.95251,-3.1575464 7.09423,-3.1575464 4.30575,0 6.64315,2.9935184 z M 122.4552,24.117574 q 1.64028,1.599277 4.10071,1.599277 2.46043,0 4.0597,-1.599277 1.59928,-1.640284 1.59928,-4.182724 0,-2.54244 -1.59928,-4.141717 -1.59927,-1.640284 -4.0597,-1.640284 -2.46043,0 -4.10071,1.640284 -1.59928,1.599277 -1.59928,4.141717 0,2.54244 1.59928,4.182724 z M 144.96808,7.222649 q -1.31223,0 -2.2964,-0.9431633 -0.94317,-0.9841704 -0.94317,-2.2963975 0,-1.3122272 0.94317,-2.2963976 0.98417,-0.98417036 2.2964,-0.98417036 1.35323,0 2.29639,0.98417036 0.98417,0.9841704 0.98417,2.2963976 0,1.3122271 -0.98417,2.2963975 -0.94316,0.9431633 -2.29639,0.9431633 z m -2.62446,22.963976 V 9.683075 h 5.28992 v 20.50355 z m 23.66109,-20.50355 h 5.28992 v 20.50355 h -5.28992 v -2.296398 q -1.92733,2.870497 -6.11006,2.870497 -3.36258,0 -5.57696,-2.255391 -2.17338,-2.25539 -2.17338,-6.233079 V 9.683075 h 5.28992 v 11.933066 q 0,2.050355 1.10719,3.157546 1.10719,1.066185 2.95251,1.066185 2.05035,0 3.28057,-1.27122 1.23021,-1.27122 1.23021,-3.81366 z m 29.03301,20.50355 h -6.11006 l -4.42877,-6.23308 -4.46977,6.23308 h -6.11006 l 7.5043,-10.456811 -7.17624,-10.046739 h 6.11006 l 4.14171,5.782001 4.14172,-5.782001 h 6.06905 l -7.17624,10.005732 z"
     id="text3"
     aria-label="mediux" />
</svg>
